<svg width="1484" height="512" viewBox="0 0 1484 512" fill="none" xmlns="http://www.w3.org/2000/svg">
<g clip-path="url(#clip0_65_12)">
<rect width="512" height="512" rx="50" fill="white"/>
<path d="M107.42 427V270.8H174.74C182.367 270.8 189.407 272.34 195.86 275.42C202.313 278.5 207.887 282.68 212.58 287.96C217.273 293.093 220.867 298.887 223.36 305.34C226 311.793 227.32 318.32 227.32 324.92C227.32 334.16 225.12 342.887 220.72 351.1C216.467 359.313 210.453 366.06 202.68 371.34C195.053 376.473 186.107 379.04 175.84 379.04H150.32V427H107.42ZM150.32 341.64H172.98C174.74 341.64 176.427 341.127 178.04 340.1C179.653 339.073 180.973 337.313 182 334.82C183.173 332.327 183.76 329.027 183.76 324.92C183.76 320.52 183.1 317.147 181.78 314.8C180.607 312.307 179.067 310.62 177.16 309.74C175.4 308.713 173.64 308.2 171.88 308.2H150.32V341.64ZM317.09 428.32C305.21 428.32 294.43 426.12 284.75 421.72C275.07 417.173 266.71 411.16 259.67 403.68C252.777 396.053 247.424 387.547 243.61 378.16C239.944 368.627 238.11 358.8 238.11 348.68C238.11 338.267 240.09 328.367 244.05 318.98C248.01 309.593 253.51 301.233 260.55 293.9C267.737 286.42 276.17 280.553 285.85 276.3C295.677 272.047 306.384 269.92 317.97 269.92C329.85 269.92 340.63 272.193 350.31 276.74C359.99 281.14 368.277 287.153 375.17 294.78C382.064 302.407 387.344 310.987 391.01 320.52C394.824 329.907 396.73 339.587 396.73 349.56C396.73 359.827 394.75 369.653 390.79 379.04C386.977 388.427 381.477 396.86 374.29 404.34C367.25 411.673 358.89 417.54 349.21 421.94C339.53 426.193 328.824 428.32 317.09 428.32ZM281.67 349.12C281.67 354.4 282.404 359.533 283.87 364.52C285.337 369.36 287.537 373.76 290.47 377.72C293.404 381.533 297.07 384.613 301.47 386.96C306.017 389.16 311.37 390.26 317.53 390.26C323.69 390.26 329.044 389.087 333.59 386.74C338.137 384.393 341.804 381.24 344.59 377.28C347.524 373.173 349.65 368.7 350.97 363.86C352.437 358.873 353.17 353.813 353.17 348.68C353.17 343.4 352.437 338.34 350.97 333.5C349.504 328.66 347.304 324.333 344.37 320.52C341.437 316.56 337.697 313.48 333.15 311.28C328.604 309.08 323.324 307.98 317.31 307.98C311.15 307.98 305.797 309.153 301.25 311.5C296.85 313.847 293.184 317 290.25 320.96C287.317 324.773 285.117 329.173 283.65 334.16C282.33 339 281.67 343.987 281.67 349.12ZM433.613 428.32C427.013 428.32 421.733 426.34 417.773 422.38C413.96 418.42 412.053 413.213 412.053 406.76C412.053 400.453 413.96 395.393 417.773 391.58C421.733 387.62 427.013 385.64 433.613 385.64C440.506 385.64 445.786 387.62 449.453 391.58C453.266 395.393 455.173 400.453 455.173 406.76C455.173 413.213 453.266 418.42 449.453 422.38C445.786 426.34 440.506 428.32 433.613 428.32Z" fill="black"/>
<path d="M219.01 211.6V249H107.69V92.8H217.03V130.2H150.59V152.2H207.35V186.96H150.59V211.6H219.01ZM276.14 92.8L304.52 142.08L332.9 92.8H379.1L330.04 172L377.34 249H331.14L304.52 201.92L277.9 249H231.48L278.78 172L229.72 92.8H276.14Z" fill="black"/>
</g>
<path d="M712.1 435V486H560.3V273H709.4V324H618.8V354H696.2V401.4H618.8V435H712.1ZM784.004 273L822.704 340.2L861.404 273H924.404L857.504 381L922.004 486H859.004L822.704 421.8L786.404 486H723.104L787.604 381L720.704 273H784.004ZM942.472 486V273H1034.27C1044.67 273 1054.27 275.1 1063.07 279.3C1071.87 283.5 1079.47 289.2 1085.87 296.4C1092.27 303.4 1097.17 311.3 1100.57 320.1C1104.17 328.9 1105.97 337.8 1105.97 346.8C1105.97 359.4 1102.97 371.3 1096.97 382.5C1091.17 393.7 1082.97 402.9 1072.37 410.1C1061.97 417.1 1049.77 420.6 1035.77 420.6H1000.97V486H942.472ZM1000.97 369.6H1031.87C1034.27 369.6 1036.57 368.9 1038.77 367.5C1040.97 366.1 1042.77 363.7 1044.17 360.3C1045.77 356.9 1046.57 352.4 1046.57 346.8C1046.57 340.8 1045.67 336.2 1043.87 333C1042.27 329.6 1040.17 327.3 1037.57 326.1C1035.17 324.7 1032.77 324 1030.37 324H1000.97V369.6ZM1228.39 487.8C1212.19 487.8 1197.49 484.8 1184.29 478.8C1171.09 472.6 1159.69 464.4 1150.09 454.2C1140.69 443.8 1133.39 432.2 1128.19 419.4C1123.19 406.4 1120.69 393 1120.69 379.2C1120.69 365 1123.39 351.5 1128.79 338.7C1134.19 325.9 1141.69 314.5 1151.29 304.5C1161.09 294.3 1172.59 286.3 1185.79 280.5C1199.19 274.7 1213.79 271.8 1229.59 271.8C1245.79 271.8 1260.49 274.9 1273.69 281.1C1286.89 287.1 1298.19 295.3 1307.59 305.7C1316.99 316.1 1324.19 327.8 1329.19 340.8C1334.39 353.6 1336.99 366.8 1336.99 380.4C1336.99 394.4 1334.29 407.8 1328.89 420.6C1323.69 433.4 1316.19 444.9 1306.39 455.1C1296.79 465.1 1285.39 473.1 1272.19 479.1C1258.99 484.9 1244.39 487.8 1228.39 487.8ZM1180.09 379.8C1180.09 387 1181.09 394 1183.09 400.8C1185.09 407.4 1188.09 413.4 1192.09 418.8C1196.09 424 1201.09 428.2 1207.09 431.4C1213.29 434.4 1220.59 435.9 1228.99 435.9C1237.39 435.9 1244.69 434.3 1250.89 431.1C1257.09 427.9 1262.09 423.6 1265.89 418.2C1269.89 412.6 1272.79 406.5 1274.59 399.9C1276.59 393.1 1277.59 386.2 1277.59 379.2C1277.59 372 1276.59 365.1 1274.59 358.5C1272.59 351.9 1269.59 346 1265.59 340.8C1261.59 335.4 1256.49 331.2 1250.29 328.2C1244.09 325.2 1236.89 323.7 1228.69 323.7C1220.29 323.7 1212.99 325.3 1206.79 328.5C1200.79 331.7 1195.79 336 1191.79 341.4C1187.79 346.6 1184.79 352.6 1182.79 359.4C1180.99 366 1180.09 372.8 1180.09 379.8ZM1361.48 486V430.8H1407.68V486H1361.48Z" fill="white"/>
<path d="M560.556 255V42H652.356C662.756 42 672.356 44.1 681.156 48.3C689.956 52.5 697.556 58.2 703.956 65.4C710.356 72.4 715.256 80.3 718.656 89.1C722.256 97.9 724.056 106.8 724.056 115.8C724.056 128.4 721.056 140.3 715.056 151.5C709.256 162.7 701.056 171.9 690.456 179.1C680.056 186.1 667.856 189.6 653.856 189.6H619.056V255H560.556ZM619.056 138.6H649.956C652.356 138.6 654.656 137.9 656.856 136.5C659.056 135.1 660.856 132.7 662.256 129.3C663.856 125.9 664.656 121.4 664.656 115.8C664.656 109.8 663.756 105.2 661.956 102C660.356 98.6 658.256 96.3 655.656 95.1C653.256 93.7 650.856 93 648.456 93H619.056V138.6ZM908.27 204V255H756.47V42H905.57V93H814.97V123H892.37V170.4H814.97V204H908.27ZM944.474 255V42H1042.27C1052.67 42 1062.27 44.1 1071.07 48.3C1079.87 52.5 1087.47 58.2 1093.87 65.4C1100.27 72.4 1105.17 80.3 1108.57 89.1C1112.17 97.9 1113.97 106.8 1113.97 115.8C1113.97 124 1112.77 131.9 1110.37 139.5C1107.97 147.1 1104.47 154.1 1099.87 160.5C1095.27 166.7 1089.77 172.1 1083.37 176.7L1128.37 255H1064.17L1026.67 189.6H1002.97V255H944.474ZM1002.97 138.6H1039.87C1042.27 138.6 1044.57 137.7 1046.77 135.9C1048.97 134.1 1050.77 131.5 1052.17 128.1C1053.77 124.7 1054.57 120.6 1054.57 115.8C1054.57 110.8 1053.67 106.7 1051.87 103.5C1050.27 100.1 1048.17 97.5 1045.57 95.7C1043.17 93.9 1040.77 93 1038.37 93H1002.97V138.6ZM1155.92 255V42H1214.42V123L1279.22 42H1345.22L1267.82 137.4L1350.62 255H1283.42L1230.62 176.7L1214.42 193.5V255H1155.92Z" fill="white"/>
<defs>
<clipPath id="clip0_65_12">
<rect width="512" height="512" rx="50" fill="white"/>
</clipPath>
</defs>
</svg>
