<svg width="512" height="512" viewBox="0 0 512 512" fill="none" xmlns="http://www.w3.org/2000/svg">
<g clip-path="url(#clip0_55_3)">
<path d="M107.42 427V270.8H174.74C182.367 270.8 189.407 272.34 195.86 275.42C202.313 278.5 207.887 282.68 212.58 287.96C217.273 293.093 220.867 298.887 223.36 305.34C226 311.793 227.32 318.32 227.32 324.92C227.32 334.16 225.12 342.887 220.72 351.1C216.467 359.313 210.453 366.06 202.68 371.34C195.053 376.473 186.107 379.04 175.84 379.04H150.32V427H107.42ZM150.32 341.64H172.98C174.74 341.64 176.427 341.127 178.04 340.1C179.653 339.073 180.973 337.313 182 334.82C183.173 332.327 183.76 329.027 183.76 324.92C183.76 320.52 183.1 317.147 181.78 314.8C180.607 312.307 179.067 310.62 177.16 309.74C175.4 308.713 173.64 308.2 171.88 308.2H150.32V341.64ZM317.09 428.32C305.21 428.32 294.43 426.12 284.75 421.72C275.07 417.173 266.71 411.16 259.67 403.68C252.777 396.053 247.424 387.547 243.61 378.16C239.944 368.627 238.11 358.8 238.11 348.68C238.11 338.267 240.09 328.367 244.05 318.98C248.01 309.593 253.51 301.233 260.55 293.9C267.737 286.42 276.17 280.553 285.85 276.3C295.677 272.047 306.384 269.92 317.97 269.92C329.85 269.92 340.63 272.193 350.31 276.74C359.99 281.14 368.277 287.153 375.17 294.78C382.064 302.407 387.344 310.987 391.01 320.52C394.824 329.907 396.73 339.587 396.73 349.56C396.73 359.827 394.75 369.653 390.79 379.04C386.977 388.427 381.477 396.86 374.29 404.34C367.25 411.673 358.89 417.54 349.21 421.94C339.53 426.193 328.824 428.32 317.09 428.32ZM281.67 349.12C281.67 354.4 282.404 359.533 283.87 364.52C285.337 369.36 287.537 373.76 290.47 377.72C293.404 381.533 297.07 384.613 301.47 386.96C306.017 389.16 311.37 390.26 317.53 390.26C323.69 390.26 329.044 389.087 333.59 386.74C338.137 384.393 341.804 381.24 344.59 377.28C347.524 373.173 349.65 368.7 350.97 363.86C352.437 358.873 353.17 353.813 353.17 348.68C353.17 343.4 352.437 338.34 350.97 333.5C349.504 328.66 347.304 324.333 344.37 320.52C341.437 316.56 337.697 313.48 333.15 311.28C328.604 309.08 323.324 307.98 317.31 307.98C311.15 307.98 305.797 309.153 301.25 311.5C296.85 313.847 293.184 317 290.25 320.96C287.317 324.773 285.117 329.173 283.65 334.16C282.33 339 281.67 343.987 281.67 349.12ZM433.613 428.32C427.013 428.32 421.733 426.34 417.773 422.38C413.96 418.42 412.053 413.213 412.053 406.76C412.053 400.453 413.96 395.393 417.773 391.58C421.733 387.62 427.013 385.64 433.613 385.64C440.506 385.64 445.786 387.62 449.453 391.58C453.266 395.393 455.173 400.453 455.173 406.76C455.173 413.213 453.266 418.42 449.453 422.38C445.786 426.34 440.506 428.32 433.613 428.32Z" fill="white"/>
<path d="M219.01 211.6V249H107.69V92.8H217.03V130.2H150.59V152.2H207.35V186.96H150.59V211.6H219.01ZM276.14 92.8L304.52 142.08L332.9 92.8H379.1L330.04 172L377.34 249H331.14L304.52 201.92L277.9 249H231.48L278.78 172L229.72 92.8H276.14Z" fill="#FFFEFE"/>
</g>
<defs>
<clipPath id="clip0_55_3">
<rect width="512" height="512" fill="white"/>
</clipPath>
</defs>
</svg>
